<svg width="44" height="42" viewBox="0 0 44 42" fill="none" xmlns="http://www.w3.org/2000/svg">
<rect width="44" height="41.8073" rx="20.9037" fill="#786960"/>
<rect x="2.66669" y="2.53378" width="38.6667" height="36.1063" rx="18.0532" fill="#8A8787"/>
<path d="M26.0067 23.1964C28.5606 19.3559 28.2395 19.835 28.3131 19.7349C29.2429 18.4781 29.7344 16.9988 29.7344 15.457C29.7344 11.3682 26.2721 8 22 8C17.7418 8 14.2656 11.3616 14.2656 15.457C14.2656 16.9979 14.7674 18.5158 15.7277 19.7896L17.9932 23.1964C15.571 23.5532 11.4531 24.6162 11.4531 26.957C11.4531 27.8103 12.0343 29.0264 14.8029 29.9739C16.7361 30.6356 19.2921 31 22 31C27.0637 31 32.5469 29.6311 32.5469 26.957C32.5469 24.6158 28.4339 23.5539 26.0067 23.1964ZM16.9023 19.0483C16.8946 19.0367 16.8865 19.0254 16.8781 19.0143C16.079 17.9608 15.6719 16.7122 15.6719 15.457C15.6719 12.0871 18.5034 9.34766 22 9.34766C25.4893 9.34766 28.3281 12.0883 28.3281 15.457C28.3281 16.7142 27.9287 17.9204 27.1728 18.9462C27.1051 19.0318 27.4585 18.5057 22 26.714L16.9023 19.0483ZM22 29.6523C16.469 29.6523 12.8594 28.0943 12.8594 26.957C12.8594 26.1926 14.7141 24.9358 18.8241 24.4459L21.407 28.3299C21.5361 28.5241 21.7597 28.6416 22 28.6416C22.2402 28.6416 22.4638 28.524 22.5929 28.3299L25.1757 24.4459C29.2858 24.9358 31.1406 26.1926 31.1406 26.957C31.1406 28.0847 27.5635 29.6523 22 29.6523Z" fill="white"/>
<path d="M22 12.0879C20.0615 12.0879 18.4844 13.5993 18.4844 15.457C18.4844 17.3148 20.0615 18.8262 22 18.8262C23.9385 18.8262 25.5156 17.3148 25.5156 15.457C25.5156 13.5993 23.9385 12.0879 22 12.0879ZM22 17.4785C20.8369 17.4785 19.8906 16.5717 19.8906 15.457C19.8906 14.3424 20.8369 13.4355 22 13.4355C23.1631 13.4355 24.1094 14.3424 24.1094 15.457C24.1094 16.5717 23.1631 17.4785 22 17.4785Z" fill="white"/>
</svg>
