<svg width="173" height="24" viewBox="0 0 173 24" fill="none" xmlns="http://www.w3.org/2000/svg">
<path d="M168.107 5.02948C169.034 4.46697 170.251 4.50694 171.164 5.08727C172.004 5.60894 172.623 6.37454 172.92 7.25834C173.033 7.59422 173.026 7.95373 172.901 8.28589C172.776 8.61805 172.539 8.90599 172.224 9.10888C171.908 9.31177 171.531 9.41931 171.145 9.41624C170.758 9.41317 170.383 9.29966 170.071 9.09179L167.022 7.05365C167.022 5.99895 167.52 5.38587 168.107 5.03093V5.02948Z" fill="url(#paint0_linear_1_125)"/>
<path d="M158.78 5.02948C157.853 4.46697 156.636 4.50694 155.724 5.08727C154.884 5.60894 154.265 6.37454 153.967 7.25834C153.855 7.59422 153.862 7.95373 153.987 8.28589C154.112 8.61805 154.349 8.90599 154.664 9.10888C154.979 9.31177 155.357 9.41931 155.743 9.41624C156.13 9.41317 156.505 9.29966 156.816 9.09179L159.866 7.05365C159.866 5.99895 159.368 5.38587 158.781 5.03093L158.78 5.02948Z" fill="url(#paint1_linear_1_125)"/>
<path d="M158.214 6.8359C158.043 6.68029 157.81 6.5929 157.568 6.5929C157.326 6.5929 157.093 6.68029 156.922 6.8359C156.135 7.54483 155.495 8.37562 155.029 9.28918C155.321 9.39821 155.639 9.43723 155.952 9.40248C156.265 9.36773 156.563 9.26039 156.817 9.09076L158.354 7.84678C158.458 7.68813 158.501 7.5026 158.475 7.31953C158.45 7.13645 158.358 6.96628 158.214 6.8359V6.8359Z" fill="#5C586F"/>
<path d="M171.045 14.18C170.596 17.1659 168.485 18.7735 163.443 18.7735C157.679 18.7735 155.747 16.6738 155.747 12.8113C155.748 11.7123 156.033 10.6289 156.58 9.64879C157.127 8.66866 157.92 7.81938 158.896 7.16974C159.871 6.5201 161.001 6.08835 162.194 5.90948C163.387 5.73061 164.61 5.80963 165.763 6.14015L171.045 14.18Z" fill="url(#paint2_linear_1_125)"/>
<path d="M171.14 12.8131C171.142 13.2708 171.11 13.728 171.045 14.1818C170.31 14.3668 169.538 14.395 168.79 14.2642C168.041 14.1334 167.335 13.8472 166.728 13.4279C166.122 13.0085 165.629 12.4674 165.29 11.8468C164.952 11.2261 164.775 10.5427 164.775 9.84982C164.775 7.92341 164.991 6.78875 165.761 6.14148C167.321 6.58965 168.684 7.47803 169.651 8.67769C170.618 9.87736 171.14 11.3259 171.14 12.8131V12.8131Z" fill="url(#paint3_linear_1_125)"/>
<path d="M158.245 12.7675C158.733 12.7675 159.129 12.4786 159.129 12.1222C159.129 11.7657 158.733 11.4768 158.245 11.4768C157.757 11.4768 157.362 11.7657 157.362 12.1222C157.362 12.4786 157.757 12.7675 158.245 12.7675Z" fill="#FFAECF"/>
<path d="M168.642 12.7675C169.13 12.7675 169.525 12.4786 169.525 12.1222C169.525 11.7657 169.13 11.4768 168.642 11.4768C168.154 11.4768 167.758 11.7657 167.758 12.1222C167.758 12.4786 168.154 12.7675 168.642 12.7675Z" fill="#FFAECF"/>
<path d="M161.49 10.7857C161.645 9.91768 160.996 9.09983 160.041 8.95894C159.086 8.81805 158.186 9.40747 158.031 10.2754C157.876 11.1434 158.524 11.9613 159.479 12.1022C160.435 12.243 161.335 11.6536 161.49 10.7857Z" fill="white"/>
<path d="M167.127 12.122C168.095 12.122 168.879 11.4091 168.879 10.5298C168.879 9.65046 168.095 8.93762 167.127 8.93762C166.159 8.93762 165.375 9.65046 165.375 10.5298C165.375 11.4091 166.159 12.122 167.127 12.122Z" fill="white"/>
<path d="M160.813 10.6438C160.905 10.125 160.517 9.63652 159.946 9.55269C159.375 9.46885 158.838 9.82141 158.746 10.3402C158.653 10.8589 159.041 11.3474 159.612 11.4312C160.183 11.5151 160.721 11.1625 160.813 10.6438Z" fill="#383842"/>
<path d="M167.127 11.4786C167.704 11.4786 168.171 11.0538 168.171 10.5298C168.171 10.0058 167.704 9.58105 167.127 9.58105C166.55 9.58105 166.083 10.0058 166.083 10.5298C166.083 11.0538 166.55 11.4786 167.127 11.4786Z" fill="#383842"/>
<path d="M164.025 12.606C163.816 12.6048 163.612 12.5453 163.442 12.4355C163.271 12.5453 163.068 12.6048 162.859 12.606C162.712 12.6031 162.567 12.5725 162.433 12.5163C162.3 12.46 162.18 12.3792 162.083 12.279C162.059 12.2554 162.04 12.2277 162.028 12.1974C162.015 12.1672 162.009 12.135 162.011 12.1028C162.012 12.0706 162.02 12.0389 162.035 12.0095C162.05 11.9802 162.071 11.9538 162.097 11.9318C162.123 11.9098 162.153 11.8927 162.187 11.8814C162.22 11.8702 162.255 11.865 162.291 11.8661C162.326 11.8673 162.361 11.8748 162.393 11.8882C162.426 11.9016 162.455 11.9207 162.479 11.9443C162.524 11.9974 162.582 12.0404 162.649 12.07C162.715 12.0995 162.789 12.1149 162.863 12.1149C162.937 12.1149 163.01 12.0995 163.076 12.07C163.143 12.0404 163.201 11.9974 163.246 11.9443C163.272 11.9197 163.302 11.9 163.336 11.8866C163.37 11.8731 163.407 11.8662 163.444 11.8662C163.481 11.8662 163.518 11.8731 163.552 11.8866C163.586 11.9 163.616 11.9197 163.642 11.9443C163.687 11.9974 163.745 12.0404 163.812 12.07C163.878 12.0995 163.951 12.1149 164.025 12.1149C164.099 12.1149 164.172 12.0995 164.239 12.07C164.305 12.0404 164.363 11.9974 164.409 11.9443C164.433 11.9207 164.462 11.9016 164.494 11.8882C164.527 11.8748 164.562 11.8673 164.597 11.8661C164.633 11.865 164.668 11.8702 164.701 11.8814C164.735 11.8927 164.765 11.9098 164.791 11.9318C164.817 11.9538 164.838 11.9802 164.853 12.0095C164.868 12.0389 164.876 12.0706 164.877 12.1028C164.878 12.135 164.873 12.1672 164.86 12.1974C164.848 12.2277 164.829 12.2554 164.805 12.279C164.707 12.3796 164.587 12.4606 164.453 12.5169C164.319 12.5732 164.173 12.6036 164.025 12.606H164.025Z" fill="#383842"/>
<path d="M164.403 10.8304C164.403 11.1116 163.973 11.3389 163.443 11.3389C162.913 11.3389 162.484 11.1116 162.484 10.8304C162.484 10.5491 162.913 10.5164 163.443 10.5164C163.973 10.5164 164.403 10.5496 164.403 10.8304Z" fill="#383842"/>
<path d="M12.3043 10.7671C11.7029 10.6843 11.1386 10.4515 10.6742 10.0944C10.2098 9.73742 9.86353 9.27025 9.67404 8.74496C9.48456 8.21967 9.45925 7.6569 9.60093 7.11931C9.74262 6.58172 10.0457 6.09043 10.4765 5.70016C11.7606 4.53324 14.2312 4.18071 15.5153 5.34763C15.6 5.4246 15.6783 5.50718 15.7495 5.59469L12.3043 10.7671Z" fill="url(#paint4_linear_1_125)"/>
<path d="M15.1274 9.92613C14.7628 10.2582 14.3171 10.5074 13.8266 10.6535C13.3361 10.7996 12.8145 10.8385 12.3044 10.767C12.101 10.2215 12.0313 9.64228 12.1001 9.06977C12.1689 8.49725 12.3746 7.94532 12.7027 7.45261C13.0308 6.9599 13.4735 6.53832 13.9997 6.21737C14.5259 5.89643 15.123 5.68388 15.749 5.5946C16.7464 6.80872 16.3261 8.83723 15.1274 9.92613Z" fill="url(#paint5_linear_1_125)"/>
<path d="M4.00165 10.7671C4.60308 10.6843 5.16742 10.4515 5.63182 10.0944C6.09622 9.73742 6.44244 9.27025 6.63193 8.74496C6.82142 8.21967 6.84673 7.6569 6.70504 7.11931C6.56335 6.58172 6.26023 6.09043 5.82944 5.70016C4.54538 4.53324 2.07476 4.18071 0.791225 5.34763C0.70621 5.42447 0.627729 5.50706 0.556458 5.59469L4.00165 10.7671Z" fill="url(#paint6_linear_1_125)"/>
<path d="M1.17914 9.92614C1.54365 10.2582 1.98923 10.5074 2.47967 10.6535C2.97011 10.7996 3.49156 10.8385 4.00165 10.767C4.15477 10.3577 4.23265 9.92835 4.23218 9.49607C4.23192 8.55436 3.86138 7.64373 3.18739 6.92843C2.51339 6.21313 1.58031 5.74025 0.556455 5.59509C-0.437728 6.80873 -0.0201283 8.83724 1.17914 9.92614Z" fill="url(#paint7_linear_1_125)"/>
<path d="M2.4688 7.24369C2.36829 7.15277 2.24751 7.08248 2.11459 7.03755C1.98168 6.99262 1.83971 6.9741 1.69825 6.98322C1.55679 6.99235 1.41913 7.02892 1.29453 7.09046C1.16994 7.15201 1.0613 7.2371 0.975931 7.34001C0.687557 7.68437 0.429385 8.04878 0.203796 8.42988C0.393682 8.99175 0.727708 9.5046 1.17837 9.92621C1.43692 10.1616 1.73694 10.3562 2.06603 10.5017L2.72688 8.09853C2.76863 7.94791 2.7668 7.79004 2.72158 7.64026C2.67636 7.49047 2.58928 7.35386 2.4688 7.24369V7.24369Z" fill="#FD748D"/>
<path d="M0.827244 13.1405C0.786364 12.8589 0.766005 12.5751 0.7663 12.291C0.782802 10.5205 1.56831 8.82758 2.95179 7.58091C4.33527 6.33425 6.20468 5.63477 8.15299 5.63477C10.1013 5.63477 11.9707 6.33425 13.3542 7.58091C14.7377 8.82758 15.5232 10.5205 15.5397 12.291C15.5402 12.5752 15.5199 12.8592 15.4787 13.141L0.827244 13.1405Z" fill="url(#paint8_linear_1_125)"/>
<path d="M15.4793 13.141C15.0108 16.3085 11.909 17.5404 8.15327 17.5404C4.39753 17.5404 1.29521 16.3085 0.827271 13.1405C2.73508 11.4828 4.6429 12.067 6.6567 8.60861C6.80044 8.3616 7.01625 8.15532 7.28045 8.01238C7.47791 7.9051 7.69727 7.83533 7.92525 7.8073C8.15324 7.77926 8.38511 7.79354 8.60685 7.84928C8.82858 7.90501 9.03557 8.00104 9.2153 8.13156C9.39503 8.26207 9.54376 8.42436 9.6525 8.60861C11.6626 12.067 13.5741 11.4828 15.4819 13.141H15.4793Z" fill="url(#paint9_linear_1_125)"/>
<path d="M3.41282 12.3997C3.8577 12.3997 4.21834 12.1362 4.21834 11.8112C4.21834 11.4861 3.8577 11.2227 3.41282 11.2227C2.96794 11.2227 2.6073 11.4861 2.6073 11.8112C2.6073 12.1362 2.96794 12.3997 3.41282 12.3997Z" fill="#FFAECF"/>
<path d="M12.8931 12.3997C13.338 12.3997 13.6986 12.1362 13.6986 11.8112C13.6986 11.4861 13.338 11.2227 12.8931 11.2227C12.4482 11.2227 12.0876 11.4861 12.0876 11.8112C12.0876 12.1362 12.4482 12.3997 12.8931 12.3997Z" fill="#FFAECF"/>
<path d="M4.79392 11.8112C5.67606 11.8112 6.39118 11.1613 6.39118 10.3596C6.39118 9.55796 5.67606 8.90808 4.79392 8.90808C3.91177 8.90808 3.19666 9.55796 3.19666 10.3596C3.19666 11.1613 3.91177 11.8112 4.79392 11.8112Z" fill="white"/>
<path d="M11.5121 11.8112C12.3942 11.8112 13.1093 11.1613 13.1093 10.3596C13.1093 9.55796 12.3942 8.90808 11.5121 8.90808C10.6299 8.90808 9.91479 9.55796 9.91479 10.3596C9.91479 11.1613 10.6299 11.8112 11.5121 11.8112Z" fill="white"/>
<path d="M4.79393 11.225C5.31988 11.225 5.74625 10.8375 5.74625 10.3596C5.74625 9.88161 5.31988 9.49414 4.79393 9.49414C4.26798 9.49414 3.84161 9.88161 3.84161 10.3596C3.84161 10.8375 4.26798 11.225 4.79393 11.225Z" fill="#383842"/>
<path d="M11.512 11.225C12.038 11.225 12.4643 10.8375 12.4643 10.3596C12.4643 9.88161 12.038 9.49414 11.512 9.49414C10.9861 9.49414 10.5597 9.88161 10.5597 10.3596C10.5597 10.8375 10.9861 11.225 11.512 11.225Z" fill="#383842"/>
<path d="M8.68317 12.2741C8.49398 12.2727 8.30952 12.2202 8.15322 12.1233C7.99708 12.2205 7.81252 12.273 7.62328 12.2741C7.4853 12.2718 7.34935 12.2435 7.22401 12.1911C7.09868 12.1386 6.98669 12.063 6.89513 11.9692C6.84868 11.9212 6.82466 11.8587 6.82815 11.7948C6.83165 11.731 6.8624 11.6709 6.91386 11.6273C6.96532 11.5837 7.03345 11.5601 7.10377 11.5615C7.17409 11.5628 7.24107 11.589 7.29047 11.6345C7.32974 11.6807 7.38013 11.7181 7.43778 11.7438C7.49542 11.7695 7.55879 11.7829 7.62301 11.7829C7.68723 11.7829 7.7506 11.7695 7.80825 11.7438C7.86589 11.7181 7.91629 11.6807 7.95555 11.6345C7.98084 11.6099 8.01144 11.5902 8.04545 11.5768C8.07946 11.5633 8.11614 11.5564 8.15322 11.5564C8.19031 11.5564 8.22699 11.5633 8.261 11.5768C8.29501 11.5902 8.32561 11.6099 8.35089 11.6345C8.39016 11.6807 8.44055 11.7181 8.4982 11.7438C8.55585 11.7695 8.61921 11.7829 8.68344 11.7829C8.74766 11.7829 8.81103 11.7695 8.86867 11.7438C8.92632 11.7181 8.97671 11.6807 9.01598 11.6345C9.06538 11.589 9.13236 11.5628 9.20268 11.5615C9.273 11.5601 9.34112 11.5837 9.39259 11.6273C9.44405 11.6709 9.4748 11.731 9.47829 11.7948C9.48179 11.8587 9.45777 11.9212 9.41132 11.9692C9.31986 12.063 9.20797 12.1386 9.08272 12.191C8.95747 12.2435 8.8216 12.2718 8.6837 12.2741H8.68317Z" fill="#383842"/>
<path d="M22.9153 4.47473V18.6935H19.9856V4.47473H22.9153ZM28.5793 10.549V12.8341H22.1145V10.549H28.5793ZM29.2629 4.47473V6.76965H22.1145V4.47473H29.2629ZM33.345 10.4318V18.6935H30.5325V8.12708H33.179L33.345 10.4318ZM36.5286 8.05872L36.4797 10.6661C36.343 10.6466 36.177 10.6303 35.9817 10.6173C35.7929 10.5978 35.6204 10.588 35.4641 10.588C35.067 10.588 34.7219 10.6401 34.429 10.7443C34.1425 10.8419 33.9016 10.9884 33.7063 11.1837C33.5175 11.379 33.3743 11.6167 33.2766 11.8966C33.1855 12.1766 33.1334 12.4956 33.1204 12.8536L32.554 12.6779C32.554 11.9943 32.6223 11.366 32.759 10.7931C32.8958 10.2137 33.0943 9.70911 33.3547 9.27942C33.6217 8.84973 33.9472 8.5177 34.3313 8.28333C34.7154 8.04895 35.1549 7.93176 35.6497 7.93176C35.8059 7.93176 35.9654 7.94478 36.1282 7.97083C36.2909 7.99036 36.4244 8.01965 36.5286 8.05872ZM37.1145 13.5177V13.3126C37.1145 12.5379 37.2252 11.825 37.4465 11.174C37.6679 10.5164 37.9902 9.94674 38.4133 9.46497C38.8365 8.98319 39.3573 8.60885 39.9758 8.34192C40.5943 8.06848 41.304 7.93176 42.1047 7.93176C42.9055 7.93176 43.6184 8.06848 44.2434 8.34192C44.8684 8.60885 45.3925 8.98319 45.8157 9.46497C46.2454 9.94674 46.5709 10.5164 46.7922 11.174C47.0136 11.825 47.1243 12.5379 47.1243 13.3126V13.5177C47.1243 14.2859 47.0136 14.9988 46.7922 15.6564C46.5709 16.3074 46.2454 16.8771 45.8157 17.3654C45.3925 17.8471 44.8717 18.2215 44.2532 18.4884C43.6347 18.7553 42.925 18.8888 42.1243 18.8888C41.3235 18.8888 40.6106 18.7553 39.9856 18.4884C39.3671 18.2215 38.843 17.8471 38.4133 17.3654C37.9902 16.8771 37.6679 16.3074 37.4465 15.6564C37.2252 14.9988 37.1145 14.2859 37.1145 13.5177ZM39.927 13.3126V13.5177C39.927 13.9604 39.9661 14.3738 40.0442 14.7579C40.1223 15.142 40.246 15.4806 40.4153 15.7736C40.5911 16.06 40.8189 16.2846 41.0989 16.4474C41.3788 16.6101 41.7206 16.6915 42.1243 16.6915C42.5149 16.6915 42.8502 16.6101 43.1301 16.4474C43.4101 16.2846 43.6347 16.06 43.804 15.7736C43.9732 15.4806 44.0969 15.142 44.175 14.7579C44.2597 14.3738 44.302 13.9604 44.302 13.5177V13.3126C44.302 12.8829 44.2597 12.4793 44.175 12.1017C44.0969 11.7176 43.97 11.379 43.7942 11.0861C43.6249 10.7866 43.4003 10.5522 43.1204 10.3829C42.8404 10.2137 42.5019 10.129 42.1047 10.129C41.7076 10.129 41.3691 10.2137 41.0891 10.3829C40.8157 10.5522 40.5911 10.7866 40.4153 11.0861C40.246 11.379 40.1223 11.7176 40.0442 12.1017C39.9661 12.4793 39.927 12.8829 39.927 13.3126ZM51.6067 10.3829V18.6935H48.7942V8.12708H51.4309L51.6067 10.3829ZM51.1965 13.0392H50.4348C50.4348 12.2579 50.5357 11.5548 50.7375 10.9298C50.9394 10.2983 51.2226 9.76119 51.5872 9.31848C51.9517 8.86926 52.3847 8.52747 52.886 8.29309C53.3938 8.05221 53.9602 7.93176 54.5852 7.93176C55.08 7.93176 55.5325 8.00338 55.9426 8.14661C56.3528 8.28984 56.7043 8.5177 56.9973 8.8302C57.2968 9.1427 57.5247 9.55611 57.6809 10.0704C57.8437 10.5848 57.925 11.213 57.925 11.9552V18.6935H55.093V11.9454C55.093 11.4767 55.0279 11.1121 54.8977 10.8517C54.7675 10.5913 54.5754 10.409 54.3215 10.3048C54.0741 10.1941 53.7681 10.1388 53.4036 10.1388C53.026 10.1388 52.6972 10.2137 52.4172 10.3634C52.1438 10.5131 51.9159 10.7215 51.7336 10.9884C51.5579 11.2488 51.4244 11.5548 51.3333 11.9064C51.2421 12.2579 51.1965 12.6355 51.1965 13.0392ZM65.2395 8.12708V10.1193H59.0872V8.12708H65.2395ZM60.6106 5.51965H63.4231V15.5099C63.4231 15.8159 63.4622 16.0503 63.5403 16.213C63.6249 16.3758 63.7486 16.4897 63.9114 16.5548C64.0741 16.6134 64.2792 16.6427 64.5266 16.6427C64.7024 16.6427 64.8586 16.6362 64.9954 16.6232C65.1386 16.6036 65.259 16.5841 65.3567 16.5646L65.3665 18.6349C65.1256 18.713 64.8652 18.7749 64.5852 18.8204C64.3053 18.866 63.996 18.8888 63.6575 18.8888C63.039 18.8888 62.4986 18.7879 62.0364 18.5861C61.5806 18.3777 61.2291 18.0457 60.9817 17.59C60.7343 17.1342 60.6106 16.5353 60.6106 15.7931V5.51965Z" fill="#3C2313"/>
<path d="M79.1771 13.9767H82.097C82.0385 14.9337 81.7748 15.7833 81.306 16.5255C80.8438 17.2677 80.196 17.8471 79.3627 18.2638C78.5358 18.6805 77.5398 18.8888 76.3744 18.8888C75.4629 18.8888 74.6459 18.7325 73.9232 18.42C73.2006 18.101 72.5821 17.6453 72.0677 17.0529C71.5599 16.4604 71.1726 15.7443 70.9056 14.9044C70.6387 14.0646 70.5052 13.1238 70.5052 12.0822V11.0958C70.5052 10.0542 70.642 9.1134 70.9154 8.27356C71.1954 7.42721 71.5925 6.7078 72.1068 6.11536C72.6276 5.52291 73.2494 5.06718 73.972 4.74817C74.6947 4.42916 75.502 4.26965 76.3939 4.26965C77.5788 4.26965 78.5782 4.4845 79.392 4.91418C80.2123 5.34387 80.847 5.93632 81.2963 6.69153C81.752 7.44674 82.0254 8.30611 82.1166 9.26965H79.1869C79.1543 8.69674 79.0404 8.21171 78.8451 7.81458C78.6498 7.41093 78.3536 7.10819 77.9564 6.90637C77.5658 6.69804 77.045 6.59387 76.3939 6.59387C75.9056 6.59387 75.4792 6.68502 75.1146 6.86731C74.75 7.0496 74.4441 7.32629 74.1967 7.69739C73.9493 8.06848 73.7637 8.53723 73.64 9.10364C73.5228 9.66353 73.4642 10.3211 73.4642 11.0763V12.0822C73.4642 12.8178 73.5196 13.4656 73.6302 14.0255C73.7409 14.5789 73.9102 15.0476 74.1381 15.4318C74.3724 15.8094 74.6719 16.0958 75.0365 16.2911C75.4076 16.4799 75.8536 16.5743 76.3744 16.5743C76.9864 16.5743 77.4909 16.4767 77.8881 16.2814C78.2852 16.0861 78.5879 15.7963 78.7963 15.4122C79.0111 15.0281 79.1381 14.5496 79.1771 13.9767ZM89.5482 16.3107V11.6036C89.5482 11.2651 89.4929 10.9754 89.3822 10.7345C89.2715 10.4871 89.099 10.295 88.8646 10.1583C88.6368 10.0216 88.3405 9.95325 87.976 9.95325C87.6635 9.95325 87.3933 10.0086 87.1654 10.1193C86.9375 10.2234 86.7618 10.3764 86.6381 10.5782C86.5144 10.7736 86.4525 11.0047 86.4525 11.2716H83.64C83.64 10.8224 83.7442 10.396 83.9525 9.99231C84.1608 9.58866 84.4636 9.23385 84.8607 8.92786C85.2579 8.61536 85.7299 8.37122 86.2767 8.19543C86.8301 8.01965 87.4486 7.93176 88.1322 7.93176C88.9525 7.93176 89.6817 8.06848 90.3197 8.34192C90.9577 8.61536 91.459 9.02551 91.8236 9.57239C92.1947 10.1193 92.3802 10.8029 92.3802 11.6232V16.1447C92.3802 16.7241 92.4161 17.1993 92.4877 17.5704C92.5593 17.935 92.6635 18.254 92.8002 18.5275V18.6935H89.9584C89.8217 18.407 89.7175 18.049 89.6459 17.6193C89.5808 17.1831 89.5482 16.7469 89.5482 16.3107ZM89.9193 12.2579L89.9388 13.8497H88.3666C87.9955 13.8497 87.6732 13.892 87.3998 13.9767C87.1263 14.0613 86.9017 14.1818 86.726 14.338C86.5502 14.4878 86.42 14.6635 86.3353 14.8654C86.2572 15.0672 86.2181 15.2885 86.2181 15.5294C86.2181 15.7703 86.2735 15.9884 86.3842 16.1837C86.4948 16.3725 86.6543 16.5223 86.8627 16.6329C87.071 16.7371 87.3151 16.7892 87.5951 16.7892C88.0183 16.7892 88.3861 16.7045 88.6986 16.5353C89.0111 16.366 89.252 16.1577 89.4213 15.9103C89.597 15.6629 89.6882 15.4285 89.6947 15.2072L90.4369 16.3986C90.3327 16.6655 90.1895 16.9422 90.0072 17.2286C89.8314 17.5151 89.6068 17.7853 89.3334 18.0392C89.0599 18.2866 88.7312 18.4917 88.347 18.6544C87.9629 18.8107 87.5072 18.8888 86.9799 18.8888C86.3093 18.8888 85.7006 18.7553 85.1537 18.4884C84.6133 18.215 84.1836 17.8406 83.8646 17.3654C83.5521 16.8836 83.3959 16.3367 83.3959 15.7247C83.3959 15.1713 83.5 14.6798 83.7084 14.2501C83.9167 13.8204 84.2227 13.4591 84.6263 13.1661C85.0365 12.8667 85.5476 12.642 86.1595 12.4923C86.7715 12.3361 87.4812 12.2579 88.2885 12.2579H89.9193ZM99.724 8.12708V10.1193H93.5717V8.12708H99.724ZM95.0951 5.51965H97.9076V15.5099C97.9076 15.8159 97.9467 16.0503 98.0248 16.213C98.1094 16.3758 98.2331 16.4897 98.3959 16.5548C98.5586 16.6134 98.7637 16.6427 99.0111 16.6427C99.1869 16.6427 99.3431 16.6362 99.4799 16.6232C99.6231 16.6036 99.7435 16.5841 99.8412 16.5646L99.851 18.6349C99.6101 18.713 99.3497 18.7749 99.0697 18.8204C98.7898 18.866 98.4805 18.8888 98.142 18.8888C97.5235 18.8888 96.9831 18.7879 96.5209 18.5861C96.0651 18.3777 95.7136 18.0457 95.4662 17.59C95.2188 17.1342 95.0951 16.5353 95.0951 15.7931V5.51965ZM103.562 11.0861L106.296 9.31848C106.7 9.05155 106.97 8.79439 107.107 8.547C107.244 8.2996 107.312 8.02291 107.312 7.71692C107.312 7.41093 107.198 7.12773 106.97 6.86731C106.742 6.60038 106.423 6.46692 106.013 6.46692C105.72 6.46692 105.473 6.53528 105.271 6.672C105.069 6.80221 104.916 6.97799 104.812 7.19934C104.714 7.42069 104.665 7.66809 104.665 7.94153C104.665 8.2345 104.744 8.53398 104.9 8.83997C105.056 9.13944 105.268 9.45846 105.535 9.797C105.801 10.129 106.098 10.4904 106.423 10.881L113.132 18.6935H109.939L104.47 12.3654C104.008 11.7924 103.604 11.2684 103.259 10.7931C102.914 10.3113 102.644 9.84257 102.449 9.38684C102.253 8.93111 102.156 8.46236 102.156 7.98059C102.156 7.2384 102.315 6.59062 102.634 6.03723C102.953 5.47734 103.402 5.04439 103.982 4.7384C104.561 4.4259 105.242 4.26965 106.023 4.26965C106.759 4.26965 107.397 4.42265 107.937 4.72864C108.477 5.02812 108.894 5.42525 109.187 5.92004C109.486 6.41484 109.636 6.95846 109.636 7.5509C109.636 7.99361 109.555 8.40377 109.392 8.78137C109.229 9.15247 109.005 9.49752 108.718 9.81653C108.432 10.129 108.103 10.4187 107.732 10.6857L104.617 12.9025C104.376 13.1238 104.193 13.3419 104.07 13.5568C103.946 13.7716 103.861 13.9767 103.816 14.172C103.77 14.3608 103.747 14.5431 103.747 14.7189C103.747 15.0965 103.829 15.435 103.992 15.7345C104.154 16.034 104.382 16.2684 104.675 16.4376C104.968 16.6069 105.31 16.6915 105.701 16.6915C106.234 16.6915 106.752 16.5743 107.253 16.34C107.755 16.1056 108.204 15.7703 108.601 15.3341C108.998 14.8914 109.314 14.3673 109.548 13.7618C109.783 13.1564 109.9 12.4891 109.9 11.7599H112.283C112.283 12.4891 112.211 13.1824 112.068 13.84C111.925 14.491 111.693 15.0965 111.374 15.6564C111.055 16.2098 110.632 16.7013 110.105 17.131C110.066 17.1635 110.01 17.2124 109.939 17.2775C109.874 17.3361 109.818 17.3816 109.773 17.4142C109.148 17.9155 108.497 18.2898 107.82 18.5372C107.143 18.7781 106.387 18.8986 105.554 18.8986C104.604 18.8986 103.78 18.726 103.083 18.381C102.393 18.0359 101.859 17.5607 101.482 16.9552C101.111 16.3497 100.925 15.6564 100.925 14.8751C100.925 14.3022 101.036 13.8042 101.257 13.381C101.485 12.9513 101.798 12.5542 102.195 12.1896C102.592 11.825 103.048 11.4572 103.562 11.0861ZM119.031 18.6935H115.935L115.954 16.4083H119.031C119.799 16.4083 120.447 16.2358 120.974 15.8907C121.501 15.5392 121.898 15.0281 122.165 14.3575C122.439 13.687 122.576 12.8764 122.576 11.9259V11.2325C122.576 10.5034 122.497 9.8621 122.341 9.30872C122.191 8.75533 121.967 8.28984 121.667 7.91223C121.368 7.53463 121 7.25142 120.564 7.06262C120.128 6.86731 119.626 6.76965 119.06 6.76965H115.876V4.47473H119.06C120.01 4.47473 120.88 4.63749 121.667 4.96301C122.462 5.28202 123.148 5.74101 123.728 6.33997C124.307 6.93892 124.753 7.65507 125.066 8.4884C125.385 9.31523 125.544 10.2365 125.544 11.2521V11.9259C125.544 12.935 125.385 13.8562 125.066 14.6896C124.753 15.5229 124.307 16.2391 123.728 16.838C123.155 17.4305 122.468 17.8894 121.667 18.215C120.873 18.534 119.994 18.6935 119.031 18.6935ZM117.595 4.47473V18.6935H114.665V4.47473H117.595ZM127.048 13.5177V13.3126C127.048 12.5379 127.159 11.825 127.38 11.174C127.602 10.5164 127.924 9.94674 128.347 9.46497C128.77 8.98319 129.291 8.60885 129.91 8.34192C130.528 8.06848 131.238 7.93176 132.038 7.93176C132.839 7.93176 133.552 8.06848 134.177 8.34192C134.802 8.60885 135.326 8.98319 135.749 9.46497C136.179 9.94674 136.505 10.5164 136.726 11.174C136.947 11.825 137.058 12.5379 137.058 13.3126V13.5177C137.058 14.2859 136.947 14.9988 136.726 15.6564C136.505 16.3074 136.179 16.8771 135.749 17.3654C135.326 17.8471 134.805 18.2215 134.187 18.4884C133.568 18.7553 132.859 18.8888 132.058 18.8888C131.257 18.8888 130.544 18.7553 129.919 18.4884C129.301 18.2215 128.777 17.8471 128.347 17.3654C127.924 16.8771 127.602 16.3074 127.38 15.6564C127.159 14.9988 127.048 14.2859 127.048 13.5177ZM129.861 13.3126V13.5177C129.861 13.9604 129.9 14.3738 129.978 14.7579C130.056 15.142 130.18 15.4806 130.349 15.7736C130.525 16.06 130.753 16.2846 131.033 16.4474C131.313 16.6101 131.654 16.6915 132.058 16.6915C132.449 16.6915 132.784 16.6101 133.064 16.4474C133.344 16.2846 133.568 16.06 133.738 15.7736C133.907 15.4806 134.031 15.142 134.109 14.7579C134.193 14.3738 134.236 13.9604 134.236 13.5177V13.3126C134.236 12.8829 134.193 12.4793 134.109 12.1017C134.031 11.7176 133.904 11.379 133.728 11.0861C133.559 10.7866 133.334 10.5522 133.054 10.3829C132.774 10.2137 132.436 10.129 132.038 10.129C131.641 10.129 131.303 10.2137 131.023 10.3829C130.749 10.5522 130.525 10.7866 130.349 11.0861C130.18 11.379 130.056 11.7176 129.978 12.1017C129.9 12.4793 129.861 12.8829 129.861 13.3126ZM145.476 8.12708H148.025V18.3419C148.025 19.3055 147.81 20.1225 147.38 20.7931C146.957 21.4702 146.365 21.9812 145.603 22.3263C144.841 22.6779 143.956 22.8536 142.947 22.8536C142.504 22.8536 142.035 22.795 141.54 22.6779C141.052 22.5607 140.583 22.3784 140.134 22.131C139.691 21.8836 139.32 21.5711 139.021 21.1935L140.261 19.5333C140.587 19.9109 140.964 20.2039 141.394 20.4122C141.824 20.6271 142.299 20.7345 142.82 20.7345C143.328 20.7345 143.757 20.6401 144.109 20.4513C144.46 20.269 144.731 19.9988 144.919 19.6407C145.108 19.2892 145.203 18.8628 145.203 18.3615V10.5685L145.476 8.12708ZM138.367 13.5372V13.3322C138.367 12.5249 138.464 11.7924 138.66 11.1349C138.861 10.4708 139.145 9.90116 139.509 9.4259C139.88 8.95064 140.329 8.5828 140.857 8.32239C141.384 8.06197 141.98 7.93176 142.644 7.93176C143.347 7.93176 143.936 8.06197 144.411 8.32239C144.887 8.5828 145.277 8.9539 145.583 9.43567C145.889 9.91093 146.127 10.4741 146.296 11.1251C146.472 11.7697 146.609 12.476 146.706 13.2443V13.6935C146.609 14.4292 146.462 15.1128 146.267 15.7443C146.072 16.3758 145.814 16.9292 145.495 17.4044C145.176 17.8732 144.779 18.2378 144.304 18.4982C143.835 18.7586 143.275 18.8888 142.624 18.8888C141.973 18.8888 141.384 18.7553 140.857 18.4884C140.336 18.2215 139.89 17.8471 139.519 17.3654C139.148 16.8836 138.861 16.3172 138.66 15.6661C138.464 15.0151 138.367 14.3055 138.367 13.5372ZM141.179 13.3322V13.5372C141.179 13.9734 141.221 14.3803 141.306 14.7579C141.391 15.1355 141.521 15.4708 141.697 15.7638C141.879 16.0503 142.104 16.2749 142.37 16.4376C142.644 16.5939 142.966 16.672 143.337 16.672C143.852 16.672 144.272 16.5646 144.597 16.3497C144.923 16.1284 145.167 15.8256 145.329 15.4415C145.492 15.0574 145.587 14.6147 145.613 14.1134V12.8341C145.6 12.424 145.544 12.0561 145.447 11.7306C145.349 11.3986 145.212 11.1154 145.036 10.881C144.861 10.6466 144.633 10.4643 144.353 10.3341C144.073 10.2039 143.741 10.1388 143.357 10.1388C142.986 10.1388 142.663 10.2234 142.39 10.3927C142.123 10.5555 141.898 10.7801 141.716 11.0665C141.54 11.353 141.407 11.6915 141.316 12.0822C141.225 12.4663 141.179 12.8829 141.179 13.3322Z" fill="white"/>
<defs>
<linearGradient id="paint0_linear_1_125" x1="167.023" y1="7.02125" x2="173.002" y2="7.02125" gradientUnits="userSpaceOnUse">
<stop stop-color="#4F4C5F"/>
<stop offset="1" stop-color="#77718A"/>
</linearGradient>
<linearGradient id="paint1_linear_1_125" x1="153.887" y1="7.02125" x2="159.866" y2="7.02125" gradientUnits="userSpaceOnUse">
<stop stop-color="#77718A"/>
<stop offset="1" stop-color="#4F4C5F"/>
</linearGradient>
<linearGradient id="paint2_linear_1_125" x1="163.397" y1="18.7731" x2="163.397" y2="5.81537" gradientUnits="userSpaceOnUse">
<stop stop-color="#F0A83E"/>
<stop offset="1" stop-color="#FFF5E3"/>
</linearGradient>
<linearGradient id="paint3_linear_1_125" x1="164.776" y1="10.2403" x2="171.141" y2="10.2403" gradientUnits="userSpaceOnUse">
<stop stop-color="#EFC4AB"/>
<stop offset="1" stop-color="#3C2313"/>
</linearGradient>
<linearGradient id="paint4_linear_1_125" x1="1021.97" y1="1468.93" x2="1741.82" y2="1468.93" gradientUnits="userSpaceOnUse">
<stop stop-color="#4F4C5F"/>
<stop offset="1" stop-color="#77718A"/>
</linearGradient>
<linearGradient id="paint5_linear_1_125" x1="12.0751" y1="8.1973" x2="16.307" y2="8.1973" gradientUnits="userSpaceOnUse">
<stop stop-color="#FD869C"/>
<stop offset="1" stop-color="#FDB0BF"/>
</linearGradient>
<linearGradient id="paint6_linear_1_125" x1="-20.8432" y1="1468.93" x2="699.008" y2="1468.93" gradientUnits="userSpaceOnUse">
<stop stop-color="#77718A"/>
<stop offset="1" stop-color="#4F4C5F"/>
</linearGradient>
<linearGradient id="paint7_linear_1_125" x1="-0.000234062" y1="8.19731" x2="4.23225" y2="8.19731" gradientUnits="userSpaceOnUse">
<stop stop-color="#FDB0BF"/>
<stop offset="1" stop-color="#FD869C"/>
</linearGradient>
<linearGradient id="paint8_linear_1_125" x1="8.15337" y1="13.1407" x2="8.15337" y2="5.5777" gradientUnits="userSpaceOnUse">
<stop stop-color="#FDB58A"/>
<stop offset="1" stop-color="#3C2313"/>
</linearGradient>
<linearGradient id="paint9_linear_1_125" x1="8.15339" y1="17.5407" x2="8.15339" y2="7.79266" gradientUnits="userSpaceOnUse">
<stop stop-color="#FFF5E3"/>
<stop offset="1" stop-color="#F0A83E"/>
</linearGradient>
</defs>
</svg>
