<svg width="40" height="22" viewBox="0 0 40 22" fill="none" xmlns="http://www.w3.org/2000/svg">
<path d="M39.3019 21.1259C39.3169 21.1228 39.3316 21.1186 39.3464 21.1146C39.359 21.1113 39.3717 21.1085 39.3841 21.1046C39.3986 21.1001 39.4127 21.0944 39.4268 21.0892C39.4393 21.0845 39.4519 21.0803 39.4643 21.075C39.4776 21.0692 39.4904 21.0625 39.5034 21.0562C39.516 21.05 39.5288 21.0442 39.5412 21.0373C39.5536 21.0305 39.5652 21.0227 39.5773 21.0153C39.5896 21.0077 39.6021 21.0005 39.6142 20.9921C39.627 20.9833 39.6389 20.9735 39.6513 20.9639C39.6617 20.9559 39.6724 20.9484 39.6825 20.9398C39.7013 20.9239 39.7191 20.9069 39.7364 20.8895C39.7396 20.8864 39.7429 20.8837 39.746 20.8805C39.7493 20.8772 39.752 20.8734 39.7552 20.87C39.7718 20.8523 39.788 20.8341 39.8033 20.815C39.8122 20.8038 39.8199 20.7921 39.8283 20.7805C39.8368 20.7685 39.8458 20.7569 39.8538 20.7445C39.8624 20.7312 39.8699 20.7175 39.8778 20.7039C39.8844 20.6924 39.8914 20.6811 39.8975 20.6693C39.9047 20.6556 39.9107 20.6413 39.9171 20.6274C39.9228 20.6149 39.9288 20.6026 39.934 20.5898C39.9395 20.5761 39.9439 20.5621 39.9488 20.5481C39.9535 20.5345 39.9586 20.521 39.9627 20.5071C39.9668 20.493 39.9698 20.4787 39.9733 20.4643C39.9767 20.4502 39.9806 20.4364 39.9832 20.4221C39.9865 20.4053 39.9885 20.3883 39.9908 20.3714C39.9924 20.3594 39.9946 20.3476 39.9957 20.3355C39.9986 20.3057 40.0001 20.276 40.0001 20.2461V1.08643C40.0001 0.59127 39.6119 0.190048 39.1327 0.190048H11.8074C11.7998 0.190048 11.7924 0.191004 11.7847 0.191243C11.7682 0.191721 11.7518 0.192438 11.7354 0.193873C11.7223 0.194948 11.7093 0.196502 11.6964 0.198295C11.6816 0.200207 11.6669 0.202478 11.6522 0.205227C11.6384 0.207737 11.6248 0.210724 11.6113 0.213951C11.5975 0.217298 11.5837 0.220884 11.5701 0.224947C11.5565 0.228891 11.5432 0.233193 11.5301 0.237735C11.5165 0.242516 11.503 0.247536 11.4897 0.253034C11.4771 0.258173 11.4647 0.263432 11.4525 0.269168C11.4388 0.275503 11.4253 0.282316 11.4119 0.289368C11.4004 0.295463 11.3892 0.301678 11.3781 0.308251C11.3647 0.316139 11.3515 0.324506 11.3384 0.333111C11.3277 0.340282 11.3171 0.347692 11.3067 0.355221C11.2945 0.364185 11.2823 0.373508 11.2704 0.383308C11.2595 0.392272 11.2489 0.401475 11.2384 0.410917C11.228 0.420359 11.2177 0.429801 11.2076 0.43984C11.1961 0.451194 11.1852 0.463026 11.1743 0.474978C11.1688 0.480954 11.1631 0.486213 11.1579 0.492309C11.1547 0.495894 11.1523 0.499839 11.1493 0.503424C11.1384 0.516452 11.1282 0.530076 11.1181 0.543821C11.1107 0.55386 11.103 0.5639 11.0961 0.574178C11.0871 0.587564 11.0787 0.601309 11.0704 0.615173C11.0636 0.626527 11.0565 0.637761 11.0503 0.649355C11.043 0.662741 11.0366 0.676486 11.0301 0.69023C11.024 0.702779 11.0178 0.715329 11.0124 0.728117C11.0067 0.741623 11.0017 0.755607 10.9967 0.769351C10.9918 0.782857 10.9867 0.796242 10.9824 0.809867C10.9781 0.823612 10.9746 0.837595 10.9709 0.851579C10.9672 0.865921 10.9633 0.880144 10.9602 0.894606C10.9573 0.908111 10.9553 0.921856 10.953 0.935481C10.9505 0.951018 10.9479 0.966556 10.9461 0.982093C10.9446 0.995001 10.9439 1.00815 10.943 1.02129C10.9418 1.03803 10.9408 1.05476 10.9405 1.07161C10.9404 1.07651 10.9398 1.08129 10.9398 1.08619V6.61413C10.9398 7.10929 11.3281 7.51052 11.8073 7.51052C12.2865 7.51052 12.6748 7.10929 12.6748 6.61413V3.077L20.3873 10.133C20.347 10.1623 20.3083 10.1946 20.2722 10.2318L12.6747 18.0826V12.1918C12.6747 11.6966 12.2864 11.2954 11.8072 11.2954C11.328 11.2954 10.9397 11.6966 10.9397 12.1918V13.2871H6.4578C5.97861 13.2871 5.59033 13.6883 5.59033 14.1834C5.59033 14.6786 5.97861 15.0798 6.4578 15.0798H10.9397V20.2467C10.9397 20.7419 11.328 21.1431 11.8072 21.1431H39.1324C39.161 21.1431 39.1896 21.1415 39.218 21.1387C39.2313 21.1373 39.2442 21.1347 39.2572 21.1328C39.2723 21.1306 39.2871 21.1289 39.3019 21.1259ZM38.2651 18.0827L30.6675 10.2319C30.6626 10.2269 30.6574 10.2227 30.6524 10.218L36.3642 5.21051C36.7294 4.89021 36.7743 4.32465 36.4643 3.94709C36.1546 3.56977 35.6073 3.52316 35.2417 3.84359L25.482 12.3999L14.0957 1.98294H38.2651V18.0827ZM21.4991 11.4998C21.561 11.4358 21.6112 11.3646 21.6504 11.2888L24.8949 14.2571C25.0589 14.4071 25.2643 14.4824 25.4699 14.4824C25.6696 14.4824 25.8691 14.4115 26.0312 14.2695L29.3377 11.3707C29.3678 11.4161 29.4016 11.4595 29.4406 11.4998L37.0381 19.3506H13.9016L21.4991 11.4998Z" fill="white"/>
<path d="M0.867468 10.3988H15.5181C15.9973 10.3988 16.3855 9.99758 16.3855 9.50242C16.3855 9.00725 15.9973 8.60603 15.5181 8.60603H0.867468C0.388279 8.60603 0 9.00725 0 9.50242C0 9.99758 0.388279 10.3988 0.867468 10.3988Z" fill="white"/>
<path d="M2.38553 5.45904H8.96384C9.44303 5.45904 9.8313 5.05782 9.8313 4.56266C9.8313 4.0675 9.44303 3.66628 8.96384 3.66628H2.38553C1.90635 3.66628 1.51807 4.0675 1.51807 4.56266C1.51807 5.05782 1.90635 5.45904 2.38553 5.45904Z" fill="white"/>
<path d="M7.2289 17.072H0.867468C0.388279 17.072 0 17.4732 0 17.9684C0 18.4635 0.388279 18.8647 0.867468 18.8647H7.2289C7.70809 18.8647 8.09637 18.4635 8.09637 17.9684C8.09637 17.4732 7.70809 17.072 7.2289 17.072Z" fill="white"/>
</svg>
