<svg width="46" height="43" viewBox="0 0 46 43" fill="none" xmlns="http://www.w3.org/2000/svg">
<rect width="45.2552" height="43" rx="21.5" fill="#786960"/>
<rect x="2.74274" y="2.60605" width="39.7698" height="37.1364" rx="18.5682" fill="#8A8787"/>
<path d="M30.6106 21.8158V16.977C30.6106 15.9149 29.683 15.0512 28.5422 15.0512H13.029C11.8882 15.0512 10.9606 15.9148 10.9606 16.977V26.6058C10.9606 27.6679 11.8882 28.5316 13.029 28.5316H24.6259C25.3034 30.7511 27.4954 32.3832 30.0935 32.3832C31.0934 32.3832 32.0766 32.1382 32.9381 31.6742C33.1851 31.5411 33.2699 31.2468 33.1265 31.0164C32.9836 30.7861 32.6669 30.7066 32.42 30.8411C31.716 31.22 30.9116 31.4203 30.0935 31.4203C27.5271 31.4203 25.4395 29.4766 25.4395 27.0873C25.4395 24.698 27.5272 22.7543 30.0935 22.7543C32.6598 22.7543 34.7475 24.698 34.7475 27.0873V27.5688C34.7475 28.0996 34.2834 28.5316 33.7133 28.5316C33.1432 28.5316 32.6791 28.0996 32.6791 27.5688V25.643C32.6791 25.3769 32.4478 25.1615 32.1619 25.1615C32.0229 25.1615 31.8979 25.2139 31.805 25.2969C31.348 24.9177 30.7524 24.6801 30.0935 24.6801C28.6679 24.6801 27.508 25.76 27.508 27.0873C27.508 28.4145 28.6679 29.4945 30.0935 29.4945C30.8642 29.4945 31.5494 29.1726 32.0235 28.673C32.3981 29.1684 33.0144 29.4945 33.7133 29.4945C34.8541 29.4945 35.7817 28.6308 35.7817 27.5687V27.0873C35.7817 24.3296 33.5053 22.0602 30.6106 21.8158ZM13.029 16.0141H28.5422C28.5637 16.0141 28.5818 16.0243 28.603 16.0255L21.2108 21.6748C20.9477 21.829 20.5664 21.797 20.3953 21.6993L12.9689 16.0254C12.9898 16.0243 13.0077 16.0141 13.029 16.0141ZM29.5764 21.8158C26.6817 22.0602 24.4053 24.3296 24.4053 27.0873C24.4053 27.2498 24.416 27.4099 24.4315 27.5688H13.029C12.4589 27.5688 11.9948 27.1367 11.9948 26.6059V16.977C11.9948 16.8406 12.0272 16.7118 12.0823 16.5942L19.7848 22.4751C20.0857 22.6579 20.4317 22.7543 20.7857 22.7543C21.126 22.7543 21.4588 22.665 21.7517 22.4958C21.781 22.4812 21.8088 22.4638 21.835 22.4436L29.4889 16.5941C29.5441 16.7118 29.5765 16.8406 29.5765 16.977V21.8158H29.5764ZM30.0935 28.5316C29.2381 28.5316 28.5422 27.8838 28.5422 27.0873C28.5422 26.2908 29.2381 25.643 30.0935 25.643C30.949 25.643 31.6449 26.2908 31.6449 27.0873C31.6449 27.8838 30.949 28.5316 30.0935 28.5316Z" fill="white"/>
</svg>
