<svg width="15" height="14" viewBox="0 0 15 14" fill="none" xmlns="http://www.w3.org/2000/svg">
<g clip-path="url(#clip0_1_160)">
<path d="M10.0308 7.30014C9.35578 6.33322 8.20622 5.75586 6.95561 5.75586C5.70512 5.75586 4.55545 6.33322 3.88059 7.30014L2.25415 9.63006C1.9843 10.0167 1.85979 10.4632 1.89401 10.9213C1.92823 11.3795 2.11808 11.8061 2.44298 12.1553C2.76811 12.5045 3.19772 12.743 3.68535 12.8454C4.17298 12.9476 4.67286 12.904 5.13085 12.7191L5.16072 12.707C6.31326 12.2508 7.63059 12.2549 8.78026 12.7191C9.07678 12.8388 9.39092 12.8994 9.70792 12.8994C9.88027 12.8994 10.0536 12.8814 10.2254 12.8455C10.7131 12.7432 11.1427 12.5047 11.4679 12.1556C11.7929 11.8065 11.9829 11.3797 12.0172 10.9215C12.0516 10.4632 11.927 10.0167 11.6572 9.62996L10.0308 7.30014ZM10.7997 11.6307C10.386 12.0748 9.71673 12.2152 9.13423 11.9801C8.44186 11.7004 7.69868 11.5606 6.95527 11.5606C6.21255 11.5606 5.46949 11.7003 4.77758 11.9796L4.75789 11.9876C4.17985 12.2121 3.52044 12.0699 3.11132 11.6307C2.69807 11.1865 2.65103 10.5577 2.99436 10.0658L4.62091 7.73584C5.13337 7.00169 6.0061 6.56336 6.95561 6.56336C7.90513 6.56336 8.77797 7.00169 9.29055 7.73584L10.9169 10.0657C11.2603 10.5578 11.2132 11.1867 10.7997 11.6307Z" fill="white"/>
<path d="M2.69223 7.29699C3.17609 7.12632 3.54368 6.76829 3.72735 6.28877C3.90199 5.83247 3.88768 5.31732 3.68684 4.83812C3.48588 4.35923 3.12036 3.9683 2.65767 3.73721C2.17141 3.49456 1.63732 3.45504 1.15426 3.62602C0.182431 3.96914 -0.263545 5.07194 0.16023 6.08489C0.498746 6.89114 1.28827 7.40008 2.0865 7.40008C2.29032 7.40008 2.49471 7.36687 2.69223 7.29699ZM0.980771 5.79485C0.731061 5.19794 0.950444 4.563 1.47012 4.37951C1.56396 4.3463 1.66318 4.3298 1.76446 4.3298C1.92079 4.3298 2.08226 4.369 2.23768 4.44666C2.51714 4.58612 2.74041 4.82824 2.8663 5.12827C2.99207 5.42851 3.00329 5.74546 2.89777 6.02089C2.80107 6.27332 2.61602 6.4589 2.37684 6.54329L2.37638 6.5435C1.85739 6.7272 1.23128 6.39123 0.980771 5.79485Z" fill="white"/>
<path d="M5.84803 5.47161C7.06293 5.47161 8.05136 4.43754 8.05136 3.16649C8.05136 1.89512 7.06293 0.86084 5.84803 0.86084C4.63324 0.86084 3.64493 1.89512 3.64493 3.16649C3.64493 4.43754 4.63324 5.47161 5.84803 5.47161ZM5.84803 1.66824C6.57805 1.66824 7.17211 2.34038 7.17211 3.16649C7.17211 3.99227 6.57805 4.66421 5.84803 4.66421C5.11801 4.66421 4.52418 3.99227 4.52418 3.16649C4.52418 2.34038 5.11801 1.66824 5.84803 1.66824Z" fill="white"/>
<path d="M9.65321 6.038H9.65333C9.84021 6.09496 10.0309 6.12218 10.2207 6.12218C11.1067 6.12218 11.9702 5.53 12.2997 4.61993C12.4894 4.09606 12.4769 3.54214 12.2645 3.06031C12.0423 2.55599 11.6304 2.18986 11.1047 2.02928C10.5789 1.86892 10.01 1.93576 9.50318 2.2176C9.01898 2.48695 8.64797 2.92369 8.45857 3.44756C8.0586 4.55268 8.59452 5.71475 9.65321 6.038ZM9.29295 3.70219C9.41667 3.36013 9.6531 3.07828 9.95877 2.90825C10.2416 2.75093 10.5501 2.71089 10.8274 2.79549C11.1046 2.88019 11.3254 3.08175 11.4495 3.36318C11.5835 3.6673 11.5892 4.02313 11.4653 4.3652C11.2182 5.04785 10.5297 5.45455 9.93062 5.2718C9.33198 5.08894 9.04588 4.38485 9.29295 3.70219Z" fill="white"/>
<path d="M14.2932 5.7689L14.2929 5.76858C13.455 5.20026 12.202 5.44659 11.4995 6.31799C10.7976 7.1898 10.9074 8.36185 11.7439 8.93059C12.049 9.13814 12.4095 9.23735 12.7785 9.23735C13.4215 9.23735 14.0905 8.93595 14.5377 8.38171C15.2395 7.5099 15.1299 6.33785 14.2932 5.7689ZM13.831 7.90135C13.4161 8.41555 12.7147 8.58611 12.2671 8.28167C11.8199 7.97765 11.7927 7.31202 12.2064 6.79813C12.4814 6.45702 12.8831 6.26723 13.2533 6.26723C13.4405 6.26723 13.6197 6.31578 13.7703 6.41803C14.2172 6.72237 14.2443 7.38779 13.831 7.90135Z" fill="white"/>
</g>
<defs>
<clipPath id="clip0_1_160">
<rect width="15" height="13.7742" fill="white"/>
</clipPath>
</defs>
</svg>
