<svg width="44" height="42" viewBox="0 0 44 42" fill="none" xmlns="http://www.w3.org/2000/svg">
<rect width="43.6049" height="41.4319" rx="20.7159" fill="#786960"/>
<rect x="2.6427" y="2.51102" width="38.3194" height="35.7821" rx="17.891" fill="#8A8787"/>
<g clip-path="url(#clip0_1_70)">
<path d="M28.5963 23.3893C28.1664 22.9629 27.6478 22.735 27.0982 22.735C26.5531 22.735 26.0301 22.9587 25.5824 23.3851L24.1818 24.7147C24.0666 24.6556 23.9514 24.6007 23.8406 24.5459C23.681 24.4699 23.5303 24.3981 23.4018 24.3221C22.0898 23.5286 20.8976 22.4944 19.7541 21.1563C19.2 20.4894 18.8277 19.9279 18.5574 19.3581C18.9208 19.0415 19.2577 18.7123 19.5857 18.3957C19.7098 18.2775 19.8339 18.1551 19.958 18.0369C20.8887 17.1504 20.8887 16.0023 19.958 15.1158L18.748 13.9635C18.6106 13.8326 18.4687 13.6975 18.3358 13.5625C18.0698 13.3008 17.7906 13.0306 17.5025 12.7773C17.0726 12.3721 16.5585 12.1568 16.0177 12.1568C15.477 12.1568 14.954 12.3721 14.5108 12.7773C14.5064 12.7816 14.5064 12.7816 14.5019 12.7858L12.995 14.2336C12.4277 14.7739 12.1041 15.4324 12.0332 16.1965C11.9268 17.429 12.308 18.5772 12.6005 19.3285C13.3185 21.1732 14.3911 22.8827 15.9911 24.7147C17.9324 26.9224 20.2682 28.6657 22.9364 29.894C23.9558 30.3542 25.3165 30.8987 26.8367 30.9915C26.9298 30.9958 27.0273 31 27.1159 31C28.1398 31 28.9996 30.6496 29.6733 29.9531C29.6778 29.9447 29.6866 29.9405 29.6911 29.932C29.9215 29.6661 30.1875 29.4255 30.4667 29.168C30.6573 28.9949 30.8523 28.8134 31.0429 28.6235C31.4817 28.1887 31.7121 27.6822 31.7121 27.163C31.7121 26.6396 31.4772 26.1372 31.0296 25.7151L28.5963 23.3893ZM30.183 27.8341C30.1786 27.8341 30.1786 27.8384 30.183 27.8341C30.0102 28.0114 29.8329 28.1718 29.6423 28.3491C29.3542 28.6108 29.0617 28.8852 28.7869 29.1933C28.3392 29.6492 27.8118 29.8645 27.1204 29.8645C27.0539 29.8645 26.983 29.8645 26.9165 29.8603C25.6001 29.7801 24.3769 29.2904 23.4594 28.8725C20.9508 27.7159 18.748 26.0739 16.9175 23.9929C15.4061 22.258 14.3956 20.654 13.7263 18.9318C13.3141 17.8807 13.1634 17.0618 13.2299 16.2893C13.2742 15.7954 13.4737 15.386 13.8415 15.0356L15.3529 13.5962C15.5701 13.4021 15.8006 13.2965 16.0266 13.2965C16.3058 13.2965 16.5319 13.4569 16.6737 13.592C16.6781 13.5962 16.6826 13.6005 16.687 13.6047C16.9574 13.8453 17.2144 14.0943 17.4848 14.3603C17.6222 14.4953 17.764 14.6304 17.9058 14.7697L19.1158 15.9221C19.5856 16.3695 19.5856 16.7832 19.1158 17.2306C18.9873 17.353 18.8632 17.4755 18.7347 17.5937C18.3624 17.9567 18.0078 18.2944 17.6222 18.6236C17.6133 18.6321 17.6045 18.6363 17.6 18.6447C17.2189 19.0077 17.2898 19.3623 17.3696 19.6029C17.374 19.6156 17.3784 19.6282 17.3828 19.6409C17.6975 20.3669 18.1408 21.0508 18.8144 21.8654L18.8189 21.8697C20.0422 23.3049 21.3319 24.4235 22.7547 25.2803C22.9364 25.3901 23.1225 25.4787 23.2998 25.5632C23.4594 25.6391 23.6101 25.7109 23.7386 25.7869C23.7563 25.7953 23.7741 25.808 23.7918 25.8164C23.9425 25.8882 24.0843 25.922 24.2306 25.922C24.5985 25.922 24.8289 25.7025 24.9043 25.6307L26.4201 24.1871C26.5708 24.0436 26.8101 23.8705 27.0894 23.8705C27.3642 23.8705 27.5902 24.0351 27.7276 24.1786C27.732 24.1828 27.732 24.1828 27.7365 24.1871L30.1786 26.5129C30.6351 26.9435 30.6351 27.3867 30.183 27.8341Z" fill="white"/>
<path d="M23.3489 15.7575C24.5101 15.9432 25.565 16.4666 26.4071 17.2686C27.2492 18.0706 27.7944 19.0753 27.9938 20.1812C28.0426 20.4598 28.2952 20.654 28.5833 20.654C28.6188 20.654 28.6498 20.6498 28.6853 20.6455C29.0132 20.5949 29.2304 20.2994 29.1772 19.987C28.9379 18.6489 28.2731 17.429 27.2581 16.4624C26.2431 15.4958 24.9622 14.8626 23.5572 14.6346C23.2292 14.584 22.9234 14.7908 22.8658 15.099C22.8082 15.4071 23.0209 15.7068 23.3489 15.7575Z" fill="white"/>
<path d="M32.9757 19.8224C32.5812 17.619 31.4909 15.6139 29.8155 14.0184C28.1401 12.4228 26.0348 11.3844 23.7212 11.0087C23.3977 10.9538 23.0919 11.1649 23.0343 11.473C22.9811 11.7854 23.1982 12.0766 23.5262 12.1315C25.5916 12.465 27.4753 13.3979 28.9734 14.8204C30.4715 16.2471 31.4466 18.0411 31.7967 20.0082C31.8455 20.2867 32.0981 20.4809 32.3862 20.4809C32.4216 20.4809 32.4527 20.4767 32.4881 20.4725C32.8117 20.426 33.0333 20.1306 32.9757 19.8224Z" fill="white"/>
</g>
<defs>
<clipPath id="clip0_1_70">
<rect width="21" height="20" fill="white" transform="translate(12 11)"/>
</clipPath>
</defs>
</svg>
