<svg width="40" height="42" viewBox="0 0 40 42" fill="none" xmlns="http://www.w3.org/2000/svg">
<g clip-path="url(#clip0_1_205)">
<path d="M39.3019 31.1259C39.3169 31.1228 39.3316 31.1186 39.3464 31.1146C39.359 31.1113 39.3717 31.1085 39.3841 31.1046C39.3986 31.1001 39.4127 31.0944 39.4268 31.0892C39.4393 31.0845 39.4519 31.0803 39.4643 31.075C39.4776 31.0692 39.4904 31.0625 39.5034 31.0562C39.516 31.05 39.5288 31.0442 39.5412 31.0373C39.5536 31.0305 39.5652 31.0227 39.5773 31.0153C39.5897 31.0077 39.6021 31.0005 39.6142 30.9921C39.627 30.9833 39.6389 30.9735 39.6513 30.9639C39.6617 30.9559 39.6723 30.9484 39.6825 30.9398C39.7013 30.9239 39.7191 30.9069 39.7364 30.8895C39.7396 30.8864 39.7429 30.8837 39.746 30.8805C39.7493 30.8772 39.752 30.8734 39.7552 30.87C39.7718 30.8523 39.788 30.8341 39.8033 30.815C39.8122 30.8038 39.8199 30.7921 39.8283 30.7805C39.8368 30.7685 39.8458 30.7569 39.8538 30.7445C39.8624 30.7312 39.8699 30.7175 39.8778 30.7039C39.8844 30.6924 39.8914 30.6811 39.8975 30.6693C39.9047 30.6556 39.9107 30.6413 39.9171 30.6274C39.9228 30.6149 39.9288 30.6026 39.934 30.5898C39.9395 30.5761 39.9439 30.5621 39.9488 30.5481C39.9535 30.5345 39.9586 30.521 39.9627 30.5071C39.9668 30.493 39.9698 30.4787 39.9733 30.4643C39.9767 30.4502 39.9806 30.4364 39.9833 30.4221C39.9865 30.4053 39.9885 30.3883 39.9908 30.3714C39.9924 30.3594 39.9946 30.3476 39.9957 30.3355C39.9986 30.3057 40.0001 30.276 40.0001 30.2461V11.0864C40.0001 10.5913 39.6119 10.19 39.1327 10.19H11.8074C11.7998 10.19 11.7924 10.191 11.7847 10.1912C11.7682 10.1917 11.7518 10.1924 11.7354 10.1939C11.7223 10.1949 11.7093 10.1965 11.6964 10.1983C11.6816 10.2002 11.6669 10.2025 11.6522 10.2052C11.6384 10.2077 11.6248 10.2107 11.6113 10.214C11.5975 10.2173 11.5837 10.2209 11.5701 10.2249C11.5565 10.2289 11.5432 10.2332 11.5301 10.2377C11.5165 10.2425 11.503 10.2475 11.4897 10.253C11.4771 10.2582 11.4647 10.2634 11.4525 10.2692C11.4388 10.2755 11.4253 10.2823 11.4119 10.2894C11.4004 10.2955 11.3892 10.3017 11.3781 10.3083C11.3647 10.3161 11.3515 10.3245 11.3384 10.3331C11.3277 10.3403 11.3171 10.3477 11.3067 10.3552C11.2945 10.3642 11.2823 10.3735 11.2704 10.3833C11.2595 10.3923 11.2489 10.4015 11.2384 10.4109C11.228 10.4204 11.2177 10.4298 11.2076 10.4398C11.1961 10.4512 11.1852 10.463 11.1743 10.475C11.1688 10.481 11.1631 10.4862 11.1579 10.4923C11.1547 10.4959 11.1523 10.4998 11.1493 10.5034C11.1384 10.5165 11.1282 10.5301 11.1181 10.5438C11.1107 10.5539 11.103 10.5639 11.0961 10.5742C11.0871 10.5876 11.0787 10.6013 11.0704 10.6152C11.0636 10.6265 11.0565 10.6378 11.0503 10.6494C11.043 10.6627 11.0366 10.6765 11.0301 10.6902C11.024 10.7028 11.0178 10.7153 11.0124 10.7281C11.0067 10.7416 11.0017 10.7556 10.9967 10.7694C10.9918 10.7829 10.9867 10.7962 10.9824 10.8099C10.9781 10.8236 10.9746 10.8376 10.9709 10.8516C10.9672 10.8659 10.9633 10.8801 10.9602 10.8946C10.9573 10.9081 10.9553 10.9219 10.953 10.9355C10.9505 10.951 10.9479 10.9666 10.9461 10.9821C10.9446 10.995 10.9439 11.0081 10.943 11.0213C10.9418 11.038 10.9408 11.0548 10.9405 11.0716C10.9404 11.0765 10.9398 11.0813 10.9398 11.0862V16.6141C10.9398 17.1093 11.3281 17.5105 11.8073 17.5105C12.2865 17.5105 12.6748 17.1093 12.6748 16.6141V13.077L20.3873 20.133C20.347 20.1623 20.3083 20.1946 20.2722 20.2318L12.6747 28.0826V22.1918C12.6747 21.6966 12.2864 21.2954 11.8072 21.2954C11.328 21.2954 10.9397 21.6966 10.9397 22.1918V23.2871H6.4578C5.97861 23.2871 5.59033 23.6883 5.59033 24.1834C5.59033 24.6786 5.97861 25.0798 6.4578 25.0798H10.9397V30.2467C10.9397 30.7419 11.328 31.1431 11.8072 31.1431H39.1324C39.161 31.1431 39.1896 31.1415 39.218 31.1387C39.2313 31.1373 39.2442 31.1347 39.2572 31.1328C39.2723 31.1306 39.2871 31.1289 39.3019 31.1259ZM38.2651 28.0827L30.6675 20.2319C30.6626 20.2269 30.6574 20.2227 30.6524 20.218L36.3642 15.2105C36.7294 14.8902 36.7743 14.3246 36.4643 13.9471C36.1546 13.5698 35.6073 13.5232 35.2417 13.8436L25.482 22.3999L14.0957 11.9829H38.2651V28.0827V28.0827ZM21.4991 21.4998C21.561 21.4358 21.6112 21.3646 21.6504 21.2888L24.8949 24.2571C25.0589 24.4071 25.2643 24.4824 25.4699 24.4824C25.6696 24.4824 25.8691 24.4115 26.0312 24.2695L29.3377 21.3707C29.3678 21.4161 29.4016 21.4595 29.4406 21.4998L37.0381 29.3506H13.9016L21.4991 21.4998Z" fill="white"/>
<path d="M0.867468 20.3988H15.5181C15.9973 20.3988 16.3855 19.9976 16.3855 19.5024C16.3855 19.0073 15.9973 18.606 15.5181 18.606H0.867468C0.388279 18.606 0 19.0073 0 19.5024C0 19.9976 0.388279 20.3988 0.867468 20.3988Z" fill="white"/>
<path d="M2.38553 15.459H8.96384C9.44303 15.459 9.8313 15.0578 9.8313 14.5627C9.8313 14.0675 9.44303 13.6663 8.96384 13.6663H2.38553C1.90635 13.6663 1.51807 14.0675 1.51807 14.5627C1.51807 15.0578 1.90635 15.459 2.38553 15.459Z" fill="white"/>
<path d="M7.2289 27.072H0.867468C0.388279 27.072 0 27.4732 0 27.9684C0 28.4635 0.388279 28.8647 0.867468 28.8647H7.2289C7.70809 28.8647 8.09637 28.4635 8.09637 27.9684C8.09637 27.4732 7.70809 27.072 7.2289 27.072Z" fill="white"/>
</g>
<defs>
<clipPath id="clip0_1_205">
<rect width="40" height="41.3333" fill="white"/>
</clipPath>
</defs>
</svg>
