<svg width="68" height="71" viewBox="0 0 68 71" fill="none" xmlns="http://www.w3.org/2000/svg">
<g clip-path="url(#clip0_1_83)">
<path d="M45.3039 37.6289C42.2891 32.6448 37.1544 29.6688 31.5683 29.6688C25.9827 29.6688 20.8475 32.6448 17.8332 37.6289L10.5684 49.6386C9.3631 51.6315 8.80694 53.9331 8.95978 56.2943C9.11262 58.6561 9.96065 60.8553 11.4119 62.6553C12.8641 64.4548 14.783 65.6845 16.9611 66.2121C19.1392 66.7391 21.372 66.5143 23.4177 65.5615L23.5511 65.4987C28.6991 63.1472 34.5832 63.1683 39.7184 65.5615C41.0428 66.1785 42.446 66.4905 43.8619 66.4905C44.6317 66.4905 45.4062 66.3979 46.1734 66.2126C48.3515 65.6855 50.2705 64.4559 51.7232 62.6564C53.1749 60.8569 54.0235 58.6571 54.1768 56.2954C54.3302 53.9331 53.774 51.6315 52.5687 49.6381L45.3039 37.6289ZM48.7385 59.9512C46.8906 62.2404 43.9013 62.9641 41.2994 61.7518C38.2069 60.3104 34.8873 59.5899 31.5668 59.5899C28.2493 59.5899 24.9303 60.3098 21.8397 61.7496L21.7518 61.7908C19.1699 62.9478 16.2245 62.2149 14.3971 59.9512C12.5513 57.6615 12.3412 54.4201 13.8747 51.8844L21.1399 39.8747C23.4289 36.0905 27.3271 33.8311 31.5683 33.8311C35.8095 33.8311 39.7082 36.0905 41.9977 39.8747L49.2619 51.8839C50.7959 54.4206 50.5853 57.6626 48.7385 59.9512Z" fill="#F0A83E"/>
<path d="M12.5253 37.6131C14.6865 36.7334 16.3284 34.8879 17.1488 32.4161C17.9289 30.0641 17.865 27.4088 16.9679 24.9387C16.0703 22.4702 14.4376 20.4551 12.3709 19.264C10.199 18.0132 7.81336 17.8095 5.65571 18.6908C1.31486 20.4595 -0.677168 26.1439 1.21569 31.3653C2.72773 35.5211 6.25429 38.1445 9.8197 38.1445C10.7301 38.1445 11.643 37.9733 12.5253 37.6131ZM4.88078 29.8702C3.76541 26.7934 4.74532 23.5205 7.06654 22.5748C7.4857 22.4036 7.92888 22.3185 8.38127 22.3185C9.07952 22.3185 9.80078 22.5206 10.495 22.9209C11.7432 23.6397 12.7405 24.8878 13.3028 26.4343C13.8646 27.9819 13.9147 29.6156 13.4434 31.0354C13.0114 32.3365 12.1849 33.2931 11.1165 33.7281L11.1145 33.7292C8.79634 34.6761 5.99973 32.9443 4.88078 29.8702Z" fill="#F0A83E"/>
<path d="M26.6213 28.204C32.0479 28.204 36.4629 22.8738 36.4629 16.3221C36.4629 9.76878 32.0479 4.4375 26.6213 4.4375C21.1953 4.4375 16.7808 9.76878 16.7808 16.3221C16.7808 22.8738 21.1953 28.204 26.6213 28.204ZM26.6213 8.59928C29.8821 8.59928 32.5355 12.0639 32.5355 16.3221C32.5355 20.5787 29.8821 24.0422 26.6213 24.0422C23.3606 24.0422 20.7081 20.5787 20.7081 16.3221C20.7081 12.0639 23.3606 8.59928 26.6213 8.59928Z" fill="#F0A83E"/>
<path d="M43.6176 31.1233H43.6181C44.4528 31.4169 45.3045 31.5572 46.1525 31.5572C50.11 31.5572 53.9667 28.5048 55.4384 23.8138C56.2859 21.1135 56.2302 18.2582 55.2815 15.7746C54.2888 13.175 52.4491 11.2878 50.1008 10.4601C47.7524 9.63349 45.2114 9.978 42.9474 11.4308C40.7847 12.8191 39.1275 15.0704 38.2815 17.7707C36.495 23.4671 38.8888 29.4571 43.6176 31.1233ZM42.0084 19.0832C42.561 17.32 43.6171 15.8672 44.9824 14.9908C46.2455 14.1799 47.6236 13.9735 48.8622 14.4095C50.1002 14.8461 51.0868 15.8851 51.6409 17.3357C52.2395 18.9034 52.265 20.7375 51.7114 22.5007C50.6078 26.0195 47.5326 28.1158 44.8567 27.1739C42.1827 26.2313 40.9048 22.602 42.0084 19.0832Z" fill="#F0A83E"/>
<path d="M64.3431 29.7365L64.3415 29.7349C60.5992 26.8054 55.0024 28.0751 51.8644 32.5668C48.7294 37.0606 49.2196 43.102 52.9562 46.0337C54.319 47.1035 55.9292 47.6148 57.5772 47.6148C60.4495 47.6148 63.4378 46.0613 65.4349 43.2044C68.5699 38.7106 68.0802 32.6692 64.3431 29.7365ZM62.2784 40.7284C60.4254 43.3788 57.2925 44.258 55.2933 42.6887C53.2956 41.1216 53.174 37.6906 55.0219 35.0418C56.2502 33.2834 58.0444 32.3052 59.6981 32.3052C60.5343 32.3052 61.3348 32.5554 62.0075 33.0825C64.0036 34.6512 64.1248 38.0812 62.2784 40.7284Z" fill="#F0A83E"/>
</g>
<defs>
<clipPath id="clip0_1_83">
<rect width="67" height="71" fill="white" transform="translate(0.5)"/>
</clipPath>
</defs>
</svg>
