<svg width="40" height="30" viewBox="0 0 40 30" fill="none" xmlns="http://www.w3.org/2000/svg">
<path d="M24.4917 20.6797C24.4917 22.3125 25.4 24.9844 27.55 24.9844C29.7 24.9844 30.6083 22.3125 30.6083 20.6797C30.6083 19.0469 29.7 16.375 27.55 16.375C25.4 16.375 24.4917 19.0469 24.4917 20.6797ZM-1.19209e-06 16.7344C-1.19209e-06 19.2266 0.266665 21.8672 1.45833 24.1563C4.61667 30.1406 13.3 30 19.5167 30C25.8333 30 35.0333 30.2109 38.3167 24.1563C39.5333 21.8906 40 19.2266 40 16.7344C40 13.4609 38.8417 10.3672 36.5417 7.85938C36.975 6.625 37.1833 5.32813 37.1833 4.04688C37.1833 2.36719 36.775 1.52344 35.9667 0C32.1917 0 29.775 0.703125 26.9 2.8125C24.4833 2.27344 22 2.03125 19.5083 2.03125C17.2583 2.03125 14.9917 2.25781 12.8083 2.75C9.975 0.664062 7.55833 0 3.825 0C3.00833 1.52344 2.60833 2.36719 2.60833 4.04688C2.60833 5.32813 2.825 6.60156 3.25 7.8125C0.958332 10.3438 -1.19209e-06 13.4609 -1.19209e-06 16.7344ZM5.35833 20.6797C5.35833 17.25 7.58333 14.2266 11.4833 14.2266C13.0583 14.2266 14.5667 14.4922 16.15 14.6953C17.3917 14.875 18.6333 14.9453 19.9083 14.9453C21.175 14.9453 22.4167 14.875 23.6667 14.6953C25.225 14.4922 26.75 14.2266 28.3333 14.2266C32.2333 14.2266 34.4583 17.25 34.4583 20.6797C34.4583 27.5391 27.7583 28.5938 21.925 28.5938H17.9083C12.05 28.5938 5.35833 27.5469 5.35833 20.6797ZM12.2417 16.375C14.3917 16.375 15.3 19.0469 15.3 20.6797C15.3 22.3125 14.3917 24.9844 12.2417 24.9844C10.0917 24.9844 9.18333 22.3125 9.18333 20.6797C9.18333 19.0469 10.0917 16.375 12.2417 16.375Z" fill="black"/>
</svg>
