<svg width="40" height="40" viewBox="0 0 40 40" fill="none" xmlns="http://www.w3.org/2000/svg">
<path d="M34.0818 34.0823H28.155V24.8006C28.155 22.5873 28.1155 19.7381 25.0725 19.7381C21.9857 19.7381 21.5133 22.1497 21.5133 24.6395V34.0817H15.5868V14.9949H21.2763V17.6033H21.356C21.9254 16.6297 22.7482 15.8288 23.7367 15.2858C24.7253 14.7429 25.8426 14.4782 26.9697 14.52C32.9768 14.52 34.0843 18.4713 34.0843 23.6116L34.0818 34.0823ZM8.89925 12.3859C6.99972 12.3863 5.45957 10.8466 5.45925 8.94704C5.45894 7.04751 6.99847 5.50735 8.898 5.50704C10.7975 5.50657 12.3377 7.04626 12.338 8.94579C12.3382 9.85798 11.976 10.7329 11.3311 11.378C10.6862 12.0232 9.81145 12.3857 8.89925 12.3859ZM11.8627 34.0825H5.92972V14.9949H11.8625V34.0823L11.8627 34.0825ZM37.0364 0.00281968H2.9516C1.34066 -0.0153053 0.0195654 1.27516 -0.00012207 2.8861V37.1131C0.0189404 38.7249 1.33988 40.0166 2.95144 39.9997H37.0364C38.6514 40.0197 39.9775 38.728 39.9999 37.1131V2.88344C39.9769 1.26938 38.6507 -0.0209303 37.0364 0.00016343" fill="#0A66C2"/>
</svg>
